<svg xmlns="http://www.w3.org/2000/svg" xmlns:xlink="http://www.w3.org/1999/xlink" version="1.1" width="256" height="256" viewBox="0 0 256 256" xml:space="preserve">
<desc>Created with Fabric.js 1.7.22</desc>
<defs>
</defs>
<g transform="translate(128 128) scale(0.72 0.72)" style="">
	<g style="stroke: none; stroke-width: 0; stroke-dasharray: none; stroke-linecap: butt; stroke-linejoin: miter; stroke-miterlimit: 10; fill: none; fill-rule: nonzero; opacity: 1;" transform="translate(-175.05 -175.05000000000004) scale(3.89 3.89)" >
	<circle cx="45" cy="45" r="45" style="stroke: none; stroke-width: 1; stroke-dasharray: none; stroke-linecap: butt; stroke-linejoin: miter; stroke-miterlimit: 10; fill: rgb(0,150,136); fill-rule: nonzero; opacity: 1;" transform="  matrix(1 0 0 1 0 0) "/>
	<path d="M 44.892 77.737 c -3.59 0 -6.5 -2.91 -6.5 -6.5 V 18.762 c 0 -3.59 2.91 -6.5 6.5 -6.5 s 6.5 2.91 6.5 6.5 v 52.475 C 51.392 74.827 48.481 77.737 44.892 77.737 z" style="stroke: none; stroke-width: 1; stroke-dasharray: none; stroke-linecap: butt; stroke-linejoin: miter; stroke-miterlimit: 10; fill: rgb(255,255,255); fill-rule: nonzero; opacity: 1;" transform=" matrix(1 0 0 1 0 0) " stroke-linecap="round" />
	<path d="M 45 77.737 c -1.664 0 -3.327 -0.635 -4.596 -1.903 l -19.2 -19.199 c -2.539 -2.539 -2.539 -6.654 0 -9.192 c 2.538 -2.539 6.654 -2.538 9.192 -0.001 L 45 62.045 l 14.603 -14.604 c 2.539 -2.537 6.654 -2.537 9.193 0 c 2.538 2.539 2.538 6.654 0 9.193 l -19.2 19.199 C 48.327 77.103 46.663 77.737 45 77.737 z" style="stroke: none; stroke-width: 1; stroke-dasharray: none; stroke-linecap: butt; stroke-linejoin: miter; stroke-miterlimit: 10; fill: rgb(255,255,255); fill-rule: nonzero; opacity: 1;" transform=" matrix(1 0 0 1 0 0) " stroke-linecap="round" />
</g>
</g>
</svg>