<?xml version="1.0" encoding="iso-8859-1"?>
<!-- Generator: Adobe Illustrator 19.0.0, SVG Export Plug-In . SVG Version: 6.00 Build 0)  -->
<svg version="1.1" id="Layer_1" xmlns="http://www.w3.org/2000/svg" xmlns:xlink="http://www.w3.org/1999/xlink" x="0px" y="0px"
	 viewBox="0 0 493.6 493.6" style="enable-background:new 0 0 493.6 493.6;" xml:space="preserve">
<circle style="fill:#C6E0DE;" cx="248" cy="248.4" r="216.8"/>
<path style="fill:#B6D3D2;" d="M94.4,95.6c84.8-84.8,221.6-84.8,306.4,0s84.8,221.6,0,306.4"/>
<path style="fill:#D60909;" d="M493.6,184.4c-43.2-88-136.8-156-245.6-156s-202.4,68-245.6,156H493.6z"/>
<path style="fill:#B70B0B;" d="M0,184.4h493.6c-43.2-88-138.4-156-246.4-156"/>
<path style="fill:#FF9100;" d="M384.8,184.4c-24-88-76-156-136.8-156s-112.8,68-136.8,156H384.8z"/>
<path style="fill:#E04F07;" d="M112,184.4h272.8c-24-88-76-156-136-156"/>
<path style="fill:#D60909;" d="M284,184.4c-6.4-88-20-156-36-156s-29.6,68-36,156H284z"/>
<path style="fill:#B70B0B;" d="M216,184.4h68c-6.4-88-18.4-156-33.6-156"/>
<g>
	<path style="fill:#00233F;" d="M256,200.4h-24v190.4c0,24.8,18.4,45.6,43.2,45.6s43.2-20,43.2-44h-24c0,8-7.2,20-19.2,20
		S256,402,256,390.8V200.4z"/>
	<circle style="fill:#00233F;" cx="306.4" cy="374.8" r="24"/>
</g>
<g>
</g>
<g>
</g>
<g>
</g>
<g>
</g>
<g>
</g>
<g>
</g>
<g>
</g>
<g>
</g>
<g>
</g>
<g>
</g>
<g>
</g>
<g>
</g>
<g>
</g>
<g>
</g>
<g>
</g>
</svg>
