<svg width="13" height="23" viewBox="0 0 13 23" fill="none" xmlns="http://www.w3.org/2000/svg">
<path d="M12.0824 0.624206L9.30511 0.619629C6.18495 0.619629 4.16856 2.74472 4.16856 6.03386V8.53018H1.37615C1.13485 8.53018 0.939453 8.73113 0.939453 8.979V12.5959C0.939453 12.8438 1.13508 13.0445 1.37615 13.0445H4.16856V22.171C4.16856 22.4189 4.36396 22.6196 4.60526 22.6196H8.24857C8.48987 22.6196 8.68527 22.4187 8.68527 22.171V13.0445H11.9502C12.1915 13.0445 12.3869 12.8438 12.3869 12.5959L12.3883 8.979C12.3883 8.85999 12.3422 8.74601 12.2604 8.66178C12.1786 8.57756 12.0672 8.53018 11.9514 8.53018H8.68527V6.41402C8.68527 5.3969 8.92122 4.88057 10.211 4.88057L12.0819 4.87988C12.323 4.87988 12.5184 4.67893 12.5184 4.43129V1.0728C12.5184 0.825386 12.3232 0.624664 12.0824 0.624206Z" fill="#BFBFBF"/>
</svg>
