<svg width="19" height="21" viewBox="0 0 19 21" fill="none" xmlns="http://www.w3.org/2000/svg">
<path fill-rule="evenodd" clip-rule="evenodd" d="M-1.0293 10.6196C-1.0293 6.42826 -1.0293 4.33257 0.0211097 2.88681C0.360348 2.41989 0.770963 2.00927 1.23788 1.67004C2.68364 0.619629 4.77933 0.619629 8.9707 0.619629C13.1621 0.619629 15.2578 0.619629 16.7035 1.67004C17.1704 2.00927 17.5811 2.41989 17.9203 2.88681C18.9707 4.33257 18.9707 6.42826 18.9707 10.6196C18.9707 14.811 18.9707 16.9067 17.9203 18.3524C17.5811 18.8194 17.1704 19.23 16.7035 19.5692C15.2578 20.6196 13.1621 20.6196 8.9707 20.6196C4.77933 20.6196 2.68364 20.6196 1.23788 19.5692C0.770963 19.23 0.360348 18.8194 0.0211097 18.3524C-1.0293 16.9067 -1.0293 14.811 -1.0293 10.6196ZM8.9707 5.32551C6.04703 5.32551 3.67659 7.69595 3.67659 10.6196C3.67659 13.5433 6.04703 15.9137 8.9707 15.9137C11.8944 15.9137 14.2648 13.5433 14.2648 10.6196C14.2648 7.69595 11.8944 5.32551 8.9707 5.32551ZM8.9707 13.9285C7.14688 13.9285 5.66188 12.4435 5.66188 10.6196C5.66188 8.79448 7.14688 7.31081 8.9707 7.31081C10.7945 7.31081 12.2795 8.79448 12.2795 10.6196C12.2795 12.4435 10.7945 13.9285 8.9707 13.9285ZM15.3673 4.92846C15.3673 5.31806 15.0515 5.6339 14.6619 5.6339C14.2723 5.6339 13.9564 5.31806 13.9564 4.92846C13.9564 4.53886 14.2723 4.22302 14.6619 4.22302C15.0515 4.22302 15.3673 4.53886 15.3673 4.92846Z" fill="#BFBFBF"/>
</svg>
