<svg width="21" height="21" viewBox="0 0 21 21" fill="none" xmlns="http://www.w3.org/2000/svg">
<path d="M14.6148 14.77L13.9636 15.7467C13.8337 15.9417 13.6618 16.108 13.4352 16.1679C12.6932 16.364 10.7232 16.4525 7.72399 13.4533C4.72475 10.454 4.81327 8.48405 5.00934 7.74202C5.0692 7.51548 5.23556 7.34359 5.43051 7.21362L6.40725 6.56246C7.13445 6.07766 7.33095 5.09514 6.84615 4.36794L5.00143 1.60085C4.57827 0.966115 3.76251 0.723612 3.06133 1.02412L2.22917 1.38076C1.59701 1.65168 1.08134 2.13791 0.773764 2.75307C0.516791 3.26701 0.317619 3.80823 0.290633 4.3822C0.20559 6.19102 0.602217 10.6474 5.56604 15.6112C10.5299 20.5751 14.9862 20.9717 16.795 20.8866C17.369 20.8596 17.9102 20.6605 18.4242 20.4035C19.0393 20.0959 19.5256 19.5802 19.7965 18.9481L20.1531 18.1159C20.4536 17.4147 20.2111 16.599 19.5764 16.1758L16.8093 14.3311C16.0821 13.8463 15.0996 14.0428 14.6148 14.77Z" fill="#FF492F"/>
</svg>
