<svg width="22" height="17" viewBox="0 0 22 17" fill="none" xmlns="http://www.w3.org/2000/svg">
<path d="M21.8496 2.38562C21.0767 2.71355 20.2474 2.93595 19.376 3.03524C20.2657 2.52509 20.9468 1.71591 21.2696 0.754677C20.435 1.22711 19.5138 1.57016 18.5322 1.75613C17.7462 0.953226 16.6281 0.453125 15.388 0.453125C13.0089 0.453125 11.0799 2.30019 11.0799 4.57698C11.0799 4.89989 11.1179 5.21527 11.1914 5.51686C7.61162 5.34469 4.43729 3.70245 2.31275 1.20701C1.94137 1.81517 1.7301 2.52381 1.7301 3.28025C1.7301 4.71142 2.49121 5.97421 3.64601 6.71301C2.94 6.69041 2.276 6.50444 1.69469 6.19533V6.24685C1.69469 8.24469 3.18017 9.91207 5.14985 10.2916C4.78897 10.3845 4.40843 10.4361 4.01475 10.4361C3.73656 10.4361 3.46754 10.4097 3.20377 10.3594C3.75228 11.9991 5.34276 13.1916 7.22717 13.2242C5.75349 14.33 3.89533 14.9871 1.8771 14.9871C1.52937 14.9871 1.18685 14.967 0.849609 14.9306C2.75632 16.1029 5.01997 16.7865 7.45288 16.7865C15.3776 16.7865 19.7094 10.5014 19.7094 5.0507L19.6949 4.51669C20.5413 3.93865 21.2735 3.2124 21.8496 2.38562Z" fill="#BFBFBF"/>
</svg>
